<?xml version="1.0" encoding="UTF-8"?>
<svg version="1.1" xmlns="http://www.w3.org/2000/svg" viewBox="0 0 1536 1024" width="1536" height="1024">
<path d="M0 0 C3.84932001 2.0408572 7.58126491 4.25181677 11.3125 6.5 C13.42107651 7.75004579 15.53047232 8.99871048 17.640625 10.24609375 C18.69958984 10.87370605 19.75855469 11.50131836 20.84960938 12.14794922 C25.72086642 15.01166248 30.63801778 17.79160611 35.5625 20.5625 C36.502146 21.09206299 37.44179199 21.62162598 38.40991211 22.16723633 C41.27251233 23.77951669 44.13614059 25.38995753 47 27 C50.95953731 29.22703612 54.91759679 31.45667431 58.875 33.6875 C59.74068604 34.17355713 60.60637207 34.65961426 61.49829102 35.16040039 C63.23915615 36.14175692 64.96559629 37.14916949 66.67618841 38.18239099 C69.227036 39.57730868 71.5294114 40.6148332 74.21995312 41.63934964 C79.78845181 43.97531996 85.5442274 46.50451519 87.98488526 52.36482777 C89.62372017 59.77925139 89.23191502 67.38882002 89.08470154 74.9342804 C89.09641408 77.52151539 89.11557777 80.10872557 89.14154583 82.69585675 C89.18594252 88.31887793 89.16741539 93.93893684 89.10724258 99.56177139 C89.01802094 107.92223415 89.02647509 116.28062635 89.0544543 124.6414166 C89.09864751 138.70714191 89.06298639 152.77161134 88.98080254 166.83712196 C88.8995111 180.76485532 88.85084922 194.692037 88.84654427 208.6200161 C88.84624644 209.48645616 88.84594861 210.35289623 88.84564176 211.24559205 C88.84453509 214.76269168 88.84366481 218.27979125 88.84310689 221.79689101 C88.83793132 253.843555 88.75041764 285.8894469 88.61206055 317.93579102 C88.48143322 348.19595095 88.4035203 378.45562286 88.38647461 408.71606445 C88.38566826 410.11488709 88.38566826 410.11488709 88.38484562 411.54196876 C88.38322192 414.36317672 88.38161782 417.18438468 88.38001961 420.00559264 C88.37789611 423.75261868 88.37575119 427.4996447 88.37359524 431.24667072 C88.37307725 432.17122102 88.37255926 433.09577131 88.37202558 434.04833828 C88.35490249 463.79276071 88.29045776 493.53709143 88.21858041 523.28142512 C88.19778454 531.99252491 88.17987746 540.70361697 88.16820025 549.41473413 C88.14343493 567.73329689 88.10557598 586.05155157 88.01273262 604.36991439 C87.97477492 611.94717705 87.94595366 619.5241813 87.94402313 627.10154724 C87.94224919 634.03031913 87.91079307 640.95836758 87.85777713 647.88693549 C87.8433711 650.4008027 87.83915166 652.9147519 87.84583836 655.42865149 C87.85333628 658.83200913 87.82436207 662.2331195 87.78577328 665.63621998 C87.80212729 667.11871003 87.80212729 667.11871003 87.81881168 668.63114938 C87.69153606 675.09491284 87.69153606 675.09491284 85.71311802 677.68428 C82.54016944 680.39457107 78.79288423 682.42129285 75.140625 684.41796875 C74.03372314 685.02753418 72.92682129 685.63709961 71.78637695 686.26513672 C70.60763123 686.90601018 69.42883792 687.54679614 68.25 688.1875 C67.03113287 688.85627559 65.81262994 689.52571534 64.59448242 690.19580078 C62.17645289 691.52500788 59.75676692 692.8511089 57.33544922 694.17431641 C52.98410725 696.55605665 48.64703924 698.96286591 44.3125 701.375 C43.60931641 701.76453857 42.90613281 702.15407715 42.18164062 702.55541992 C38.626803 704.5264891 35.08521985 706.51790105 31.55859375 708.5390625 C30.47227661 709.159021 30.47227661 709.159021 29.36401367 709.79150391 C28.00604962 710.56779702 26.65051691 711.34836753 25.2980957 712.13427734 C21.61115307 714.23901077 18.03551078 715.71475139 14 717 C14.00478106 716.18052738 14.00478106 716.18052738 14.0096587 715.34449976 C14.35581273 655.85545057 14.66964148 596.36627563 14.81491089 536.87635803 C14.81709063 535.98747476 14.81927038 535.09859149 14.82151618 534.18277236 C14.86869647 514.86412108 14.91008749 495.54546144 14.9455163 476.22678512 C14.96292625 466.75266903 14.98161526 457.27855565 15.00097656 447.80444336 C15.00288146 446.86166416 15.00478635 445.91888497 15.00674897 444.9475367 C15.06907251 414.39868327 15.21582478 383.85094579 15.40644639 353.30264612 C15.60191802 321.90553725 15.71204182 290.50925466 15.71505364 259.1115094 C15.71551895 254.67506817 15.71695808 250.23862775 15.71899033 245.80218697 C15.71936017 244.92904721 15.71973002 244.05590745 15.72011108 243.15630891 C15.72856368 229.1104609 15.82675974 215.06661059 15.95867554 201.02143929 C16.08943583 186.89477399 16.12527432 172.77037581 16.06486602 158.64321261 C16.03475518 150.98972255 16.04683255 143.34193833 16.17671776 135.6893425 C18.75405989 105.72744993 18.75405989 105.72744993 8.90988419 79.54624639 C3.39075268 74.84898854 -2.99063181 72.50986536 -9.97619462 70.80205166 C-14.14277216 69.69688449 -17.23639917 67.84702064 -20.875 65.5625 C-22.1081677 64.86302897 -23.34481478 64.16963167 -24.5859375 63.484375 C-43.5074499 52.86081902 -62.2811193 41.97564577 -81 31 C-79.65881258 26.97643774 -78.07023315 26.64459043 -74.375 24.625 C-73.09878777 23.91827667 -71.8227597 23.21122073 -70.546875 22.50390625 C-69.83080078 22.11090332 -69.11472656 21.71790039 -68.37695312 21.31298828 C-64.76874958 19.31987831 -61.18591761 17.28248122 -57.6003418 15.24902344 C-54.62280034 13.56125316 -51.64179096 11.87974528 -48.66015625 10.19921875 C-45.18069653 8.23643161 -41.70846355 6.26229934 -38.24609375 4.26953125 C-37.53179199 3.86081787 -36.81749023 3.45210449 -36.08154297 3.03100586 C-34.79268546 2.2930687 -33.50627983 1.55082124 -32.22314453 0.80297852 C-20.09033966 -6.1162738 -12.49286431 -5.77317483 0 0 Z " fill="#415DEC" transform="translate(716,187)"/>
<path d="M0 0 C4.0937905 1.3237964 7.70696339 2.78941042 11.45703125 4.90625 C12.47796875 5.47988281 13.49890625 6.05351563 14.55078125 6.64453125 C15.62714844 7.25683594 16.70351563 7.86914062 17.8125 8.5 C19.49472656 9.44939453 19.49472656 9.44939453 21.2109375 10.41796875 C28.00721145 14.26476904 34.75890128 18.1797776 41.47045898 22.17211914 C47.7116387 25.86896172 54.03968234 29.40500853 60.375 32.9375 C70.11008564 38.36689218 79.78362554 43.88884738 89.41650391 49.49707031 C104.28714988 58.1479583 119.20458778 66.70407018 134.23242188 75.07910156 C140.74776 78.71734911 147.20488894 82.43682531 153.62036133 86.24780273 C159.45261333 89.70278192 165.34475132 93.04657822 171.25 96.375 C172.2287207 96.92696045 173.20744141 97.4789209 174.21582031 98.04760742 C176.18775813 99.15946198 178.15976307 100.27119749 180.13183594 101.3828125 C193.61027201 108.9825027 206.98500603 116.71851782 220.21240234 124.74951172 C225.80223226 128.13232416 231.43590725 131.38081403 237.18701172 134.48144531 C242.31825983 137.25148205 247.40727801 140.09744829 252.5 142.9375 C253.55058594 143.51951172 254.60117187 144.10152344 255.68359375 144.70117188 C261.75474103 148.08945741 267.67112479 151.62647296 273.48388672 155.44238281 C276.12857017 157.07959225 278.82495062 158.46074324 281.625 159.8125 C286.70471553 162.28317876 291.57659894 165.00533117 296.4375 167.875 C297.09250488 168.26147705 297.74750977 168.6479541 298.42236328 169.04614258 C299.76727424 169.8459385 301.10149624 170.66397762 302.42451793 171.49948502 C305.05601128 173.09506902 305.05601128 173.09506902 308.23472804 174.43961716 C317.2614947 178.88943535 317.2614947 178.88943535 319.1965996 184.4197464 C319.64586867 188.82539638 319.67317111 193.06963428 319.56330872 197.48925781 C319.56898106 199.18323326 319.58036993 200.87719756 319.59696788 202.57110119 C319.62600425 207.21773718 319.57410397 211.86046937 319.50885308 216.50660777 C319.45267166 221.51946257 319.4717135 226.53210018 319.48158264 231.54518127 C319.48839695 240.22764193 319.44763805 248.9088319 319.37449074 257.5909729 C319.26880304 270.14363509 319.23497874 282.69568333 319.21864685 295.24874222 C319.19019988 315.61523241 319.10370097 335.98104543 318.98071289 356.34716797 C318.86137144 376.13001112 318.76935924 395.9126703 318.71411133 415.69580078 C318.71069592 416.91538018 318.70728052 418.13495959 318.70376161 419.39149594 C318.68679603 425.50981485 318.67036785 431.62813506 318.65420687 437.74645615 C318.51945585 488.49810543 318.29049991 539.24901968 318 590 C317.23969482 590.42166443 316.47938965 590.84332886 315.69604492 591.277771 C312.81998163 592.87318801 309.94420319 594.46911626 307.06860352 596.06536865 C305.83433868 596.75038163 304.59996724 597.43520258 303.36547852 598.11981201 C290.3488433 605.33877755 277.39420651 612.66403978 264.55078125 620.1875 C263.67099609 620.70151367 262.79121094 621.21552734 261.88476562 621.74511719 C260.20793421 622.72613359 258.53333567 623.71097969 256.86132812 624.70019531 C256.11947266 625.13428711 255.37761719 625.56837891 254.61328125 626.015625 C253.96141846 626.40008789 253.30955566 626.78455078 252.63793945 627.18066406 C251 628 251 628 249 628 C248.67 492.04 248.34 356.08 248 216 C239.09 211.05 230.18 206.1 221 201 C213.99227613 197.01284676 206.99038158 193.01722629 200 189 C187.84930213 182.02563989 175.66460654 175.11695575 163.4362793 168.27954102 C147.00971371 159.09402229 130.64444801 149.81154252 114.35546875 140.3840332 C107.40779095 136.36962244 100.42489991 132.42958371 93.39746094 128.55688477 C88.20412111 125.68822227 83.06364032 122.73688914 77.9375 119.75 C70.54283302 115.4427931 63.09715341 111.23375929 55.625 107.0625 C34.34447177 95.17594793 34.34447177 95.17594793 30.09889221 92.58834839 C25.56165645 89.86999467 21.23729525 87.64486005 16.22875977 85.92333984 C9.74618567 83.42354985 4.17251488 80.72779283 0 75 C-3.4970504 63.60773882 -2.17473253 51.08374083 -1.51062012 39.34020996 C-1.28383057 34.90423902 -1.18473996 30.46551006 -1.07421875 26.02539062 C-0.83957786 17.34266215 -0.46525622 8.67341755 0 0 Z " fill="#425EEB" transform="translate(362,118)"/>
<path d="M0 0 C0.30185485 9.77013551 0.53250473 19.53915464 0.67355824 29.31301117 C0.74127909 33.85228166 0.83302027 38.38835277 0.98071289 42.92578125 C1.12249213 47.30922021 1.19979027 51.6895942 1.23340416 56.07514954 C1.25733776 57.74368069 1.30408685 59.41205247 1.37449074 61.07926941 C1.58717549 66.32689266 1.57713283 70.95683044 0 76 C-3.93708963 79.86610675 -7.92082218 81.81828197 -13 84 C-14.64595076 84.9029326 -16.28417057 85.82047976 -17.90625 86.765625 C-19.43595003 87.59660959 -20.96722672 88.42469784 -22.5 89.25 C-29.48154806 93.05059815 -36.41802146 96.91859803 -43.3125 100.875 C-50.6933388 105.11031354 -58.08823398 109.31901974 -65.5 113.5 C-72.80554077 117.62193636 -80.0975916 121.76610808 -87.375 125.9375 C-94.99160583 130.30324754 -102.64424569 134.60070652 -110.3125 138.875 C-119.86769318 144.20311679 -129.34540712 149.65193877 -138.77075195 155.20654297 C-144.22103998 158.4118075 -149.71525366 161.50742732 -155.27587891 164.51708984 C-159.79756498 166.97852748 -164.27216467 169.52242063 -168.75 172.0625 C-170.77468194 173.20973716 -172.79942321 174.3568696 -174.82421875 175.50390625 C-175.84821777 176.08414551 -176.8722168 176.66438477 -177.92724609 177.26220703 C-180.89255355 178.93923377 -183.86152706 180.6095425 -186.83203125 182.27734375 C-197.42468336 188.23075988 -207.9535026 194.27276814 -218.38110352 200.51171875 C-223.70079231 203.68502787 -229.07876753 206.71756485 -234.52783203 209.66333008 C-236.49627292 210.72764115 -238.4549638 211.80997985 -240.41015625 212.8984375 C-241.28542969 213.38570312 -242.16070313 213.87296875 -243.0625 214.375 C-243.96097656 214.87773437 -244.85945312 215.38046875 -245.78515625 215.8984375 C-248 217 -248 217 -250 217 C-250 352.63 -250 488.26 -250 628 C-254.27709306 626.57430231 -257.40152982 625.38334458 -261.2109375 623.234375 C-262.19682861 622.68080322 -263.18271973 622.12723145 -264.19848633 621.55688477 C-265.7708606 620.66247681 -265.7708606 620.66247681 -267.375 619.75 C-268.46901123 619.1324585 -269.56302246 618.51491699 -270.69018555 617.87866211 C-292.01293697 605.80488519 -292.01293697 605.80488519 -302.01111484 599.69245631 C-304.95808516 597.94004337 -304.95808516 597.94004337 -308.11557317 596.72779316 C-311.63645927 595.15188681 -314.19732868 593.6660232 -317 591 C-318.7926107 585.56860218 -318.57200042 580.23734858 -318.4430542 574.59303284 C-318.44828885 572.89579977 -318.45879914 571.19857617 -318.47412419 569.50140423 C-318.50095207 564.84133012 -318.45298076 560.18456692 -318.39278746 555.52491486 C-318.34096576 550.49908948 -318.35850214 545.47345086 -318.36761475 540.44743347 C-318.37390723 531.74102588 -318.33625826 523.03569737 -318.26876068 514.32956123 C-318.17123555 501.74214473 -318.13998364 489.15525002 -318.12490478 476.56749665 C-318.09864098 456.14504375 -318.01878187 435.723166 -317.90527344 415.30102539 C-317.79512534 395.46283852 -317.71018444 375.62480787 -317.65917969 355.78637695 C-317.65602701 354.56354783 -317.65287432 353.34071871 -317.64962611 352.08083416 C-317.63396566 345.94626037 -317.61880116 339.81168547 -317.60388327 333.67710984 C-317.47948191 282.78434237 -317.26812399 231.89219924 -317 181 C-315.92166979 180.39698689 -315.92166979 180.39698689 -314.82155514 179.78179169 C-312.1215239 178.27163649 -309.42171026 176.76109316 -306.72203732 175.25029755 C-304.99213011 174.28235467 -303.26197854 173.31484856 -301.5318222 172.34735107 C-294.00104326 168.13249804 -286.5020014 163.87427598 -279.0625 159.5 C-278.11439453 158.94570313 -277.16628906 158.39140625 -276.18945312 157.8203125 C-270.85884029 154.69888148 -265.5525554 151.54005128 -260.26855469 148.34033203 C-257.93597924 146.96217456 -255.57281451 145.65940012 -253.1875 144.375 C-239.58564606 137.01850435 -226.21616673 129.23117847 -213.01196289 121.18505859 C-208.00932316 118.15003536 -202.93293503 115.29599107 -197.78564453 112.51367188 C-193.24190427 110.04468067 -188.7478883 107.48878329 -184.25 104.9375 C-182.22658575 103.79162561 -180.20314757 102.64579348 -178.1796875 101.5 C-176.64393066 100.62988281 -176.64393066 100.62988281 -175.07714844 99.7421875 C-172.09702769 98.05493412 -169.11528669 96.37058923 -166.1328125 94.6875 C-154.14672766 87.92284513 -142.18324258 81.11995301 -130.23925781 74.28125 C-128.32457639 73.18571488 -126.40887206 72.09202511 -124.4921875 71 C-111.16807687 63.40492957 -97.89742435 55.71648033 -84.61669922 48.04589844 C-72.70741962 41.16745796 -60.79121276 34.30263588 -48.84179688 27.49414062 C-42.09785819 23.64415264 -35.3901284 19.73387634 -28.6875 15.8125 C-21.66899103 11.70867103 -14.64272758 7.62162679 -7.5625 3.625 C-6.90016357 3.24964111 -6.23782715 2.87428223 -5.55541992 2.48754883 C-1.1227653 0 -1.1227653 0 0 0 Z " fill="#415DEB" transform="translate(1173,117)"/>
<path d="M0 0 C0.29759809 34.64217559 0.52664565 69.28405924 0.66384928 103.92723715 C0.68010834 108.01773702 0.69693454 112.10823436 0.71411133 116.19873047 C0.71922638 117.42023949 0.71922638 117.42023949 0.72444477 118.66642547 C0.7810027 131.84989325 0.88349531 145.03262361 1.00298635 158.21565402 C1.12458541 171.74415508 1.19676966 185.27227015 1.22315043 198.80129528 C1.24098357 207.14901334 1.29728347 215.49464726 1.40291407 223.84172362 C1.47167054 229.56682751 1.49239453 235.29085526 1.47551791 241.01634198 C1.46719327 244.32014481 1.48699262 247.61954533 1.54967117 250.92286873 C1.89908974 270.28691218 1.89908974 270.28691218 -1.27637887 274.82346725 C-4.71206085 278.03227357 -8.56095311 279.51172057 -13 281 C-14.47347321 281.79102432 -15.93426943 282.60778866 -17.36328125 283.4765625 C-18.67838502 284.19509735 -19.99481061 284.91121787 -21.3125 285.625 C-29.82777106 290.29484631 -38.21552102 295.1716836 -46.58911133 300.09033203 C-51.0757539 302.7231671 -55.56640198 305.34875497 -60.08984375 307.91796875 C-60.79874756 308.32168701 -61.50765137 308.72540527 -62.23803711 309.14135742 C-64 310 -64 310 -66 310 C-66 219.58 -66 129.16 -66 36 C-58.74 32.04 -51.48 28.08 -44 24 C-39.57761791 21.40534471 -35.18103928 18.80429242 -30.8125 16.125 C-24.1149045 12.03657725 -17.40064492 8.05498772 -10.47924805 4.35498047 C-8.74239051 3.4057378 -7.04082425 2.39035213 -5.37036133 1.32861328 C-3 0 -3 0 0 0 Z " fill="#405CEB" transform="translate(567,496)"/>
<path d="M0 0 C1.42307968 0.81553848 1.42307968 0.81553848 2.87490845 1.64755249 C4.13875784 2.37101956 5.40262387 3.09445755 6.66650391 3.81787109 C7.28952896 4.17501694 7.91255402 4.53216278 8.55445862 4.90013123 C13.78385154 7.89205966 19.06873572 10.77186252 24.375 13.625 C32.66362543 18.11467211 40.85687521 22.75160807 49 27.5 C50.00853027 28.0873291 51.01706055 28.6746582 52.05615234 29.27978516 C57.42591659 32.42738972 57.42591659 32.42738972 60 34 C61.0274061 34.46826328 62.0548122 34.93652657 63.11335182 35.41897964 C66.32979034 38.29487334 66.444851 38.69513644 66.73828697 42.75573349 C66.76357228 44.78539046 66.75528973 46.81562016 66.7215271 48.84515381 C66.72665365 49.9633813 66.7317802 51.0816088 66.7370621 52.23372197 C66.7469743 55.99461075 66.71389554 59.75390673 66.68115234 63.51464844 C66.67946055 66.20489633 66.68014413 68.89504555 66.68380737 71.58528137 C66.68695472 77.38415885 66.66811776 83.18263152 66.63438034 88.98140717 C66.58563375 97.36540789 66.56999334 105.74921271 66.56245239 114.13333979 C66.54931808 127.73565132 66.50938169 141.33774706 66.45263672 154.93994141 C66.39756909 168.1537976 66.3550954 181.3675952 66.32958984 194.58154297 C66.3280135 195.39594187 66.32643716 196.21034077 66.32481305 197.04941842 C66.31698287 201.13498696 66.30940061 205.22055593 66.30194163 209.30612516 C66.23973338 243.20423994 66.13404769 277.10209353 66 311 C62.52601585 309.86677414 59.31979092 308.79057007 56.171875 306.92578125 C55.46764404 306.51303955 54.76341309 306.10029785 54.0378418 305.67504883 C53.282854 305.22540771 52.52786621 304.7757666 51.75 304.3125 C50.06407596 303.32245014 48.37786135 302.33289498 46.69140625 301.34375 C45.32846436 300.54130859 45.32846436 300.54130859 43.93798828 299.72265625 C38.53818056 296.55653997 33.11115419 293.43752632 27.6875 290.3125 C26.02134644 289.35089966 26.02134644 289.35089966 24.3215332 288.36987305 C17.31201291 284.32553714 10.29039616 280.30374912 3.24609375 276.3203125 C1 275 1 275 0 274 C-0.09671192 272.53521364 -0.12371783 271.06576805 -0.12304783 269.59779263 C-0.12503888 268.64135119 -0.12702993 267.68490975 -0.12908131 266.69948524 C-0.12616847 265.63627825 -0.12325563 264.57307126 -0.12025452 263.47764587 C-0.12110894 262.3578981 -0.12196337 261.23815033 -0.12284368 260.08447081 C-0.12450176 256.30100831 -0.11897178 252.51758933 -0.11352539 248.73413086 C-0.112688 246.03451001 -0.11335705 243.33489003 -0.1139679 240.63526917 C-0.11449333 234.80703715 -0.11134454 228.97881629 -0.10573006 223.15058708 C-0.09761763 214.72385181 -0.0950001 206.29712196 -0.09374207 197.87038321 C-0.09155114 184.1999627 -0.08488996 170.52954814 -0.07543945 156.85913086 C-0.06626638 143.57625356 -0.05918504 130.29337787 -0.05493164 117.01049805 C-0.05466892 116.19232398 -0.05440619 115.37414992 -0.05413551 114.5311827 C-0.05283051 110.42681782 -0.05156679 106.32245293 -0.05032361 102.21808803 C-0.03994973 68.1453877 -0.02233032 34.07269458 0 0 Z " fill="#405CEB" transform="translate(968,495)"/>
<path d="M0 0 C0 25.08 0 50.16 0 76 C-8.58 80.62 -17.16 85.24 -26 90 C-30.96593853 93.00975726 -30.96593853 93.00975726 -35.890625 96.0859375 C-39.77607027 98.4777317 -43.75238869 100.67742855 -47.75 102.875 C-53.5765143 106.07869904 -59.34825228 109.35009525 -65.0625 112.75 C-71.99694772 116.87017191 -79.01506323 120.82658996 -86.0625 124.75 C-94.46998778 129.43272403 -102.82390727 134.19362897 -111.125 139.0625 C-120.83249359 144.75627259 -130.60403634 150.32582878 -140.41015625 155.84765625 C-145.82710883 158.89838929 -151.22871578 161.97538204 -156.625 165.0625 C-157.48013184 165.55161865 -158.33526367 166.0407373 -159.21630859 166.54467773 C-161.81112001 168.02935303 -164.40561168 169.51458551 -167 171 C-187.34231439 182.64627885 -187.34231439 182.64627885 -197.25 188.25 C-197.92393799 188.63309326 -198.59787598 189.01618652 -199.29223633 189.41088867 C-203.8839819 192 -203.8839819 192 -205 192 C-205.30187973 182.36006882 -205.5325117 172.7217747 -205.67355824 163.07814026 C-205.74127553 158.59938083 -205.83300831 154.12386475 -205.98071289 149.64697266 C-206.12250768 145.32188416 -206.19979294 140.99990237 -206.23340416 136.67266846 C-206.25733523 135.0264593 -206.3040797 133.38041143 -206.37449074 131.73553467 C-206.58768341 126.5463182 -206.57835154 121.9820399 -205 117 C-201.05154033 113.16603341 -197.05545604 111.19786116 -192 109 C-190.59625684 108.17998638 -189.20261419 107.34134196 -187.8359375 106.4609375 C-186.68270762 105.76493533 -185.52908285 105.0695869 -184.375 104.375 C-183.81039062 104.03210938 -183.24578125 103.68921875 -182.6640625 103.3359375 C-178.12803432 100.60629222 -173.49626164 98.07205284 -168.84277344 95.54882812 C-164.34799606 93.09993877 -159.89210597 90.58353291 -155.4375 88.0625 C-153.97679077 87.23649292 -153.97679077 87.23649292 -152.48657227 86.39379883 C-141.53781987 80.1900554 -130.64657027 73.88699348 -119.75195312 67.58886719 C-114.79706638 64.72811462 -109.82852447 61.89155656 -104.85742188 59.05908203 C-99.97822047 56.27701372 -95.10289206 53.48814707 -90.22705078 50.70019531 C-85.74007766 48.13506624 -81.25133718 45.57316845 -76.7578125 43.01953125 C-67.72815377 37.88275678 -58.74279458 32.68288497 -49.8125 27.375 C-41.66600689 22.5345483 -33.44561374 17.85833592 -25.14453125 13.2890625 C-18.11021741 9.41633029 -11.05161397 5.52724436 -4.23828125 1.27734375 C-2 0 -2 0 0 0 Z " fill="#415CEB" transform="translate(1173,245)"/>
<path d="M0 0 C4.00370005 1.29303689 7.47802781 2.68380102 11.09765625 4.8359375 C12.05309326 5.39941895 13.00853027 5.96290039 13.99291992 6.54345703 C15.51236206 7.4500708 15.51236206 7.4500708 17.0625 8.375 C19.22609331 9.65183704 21.3901645 10.92786463 23.5546875 12.203125 C24.6384668 12.84314453 25.72224609 13.48316406 26.83886719 14.14257812 C31.43315448 16.84209448 36.05680195 19.48856988 40.6875 22.125 C41.54093994 22.61145996 42.39437988 23.09791992 43.27368164 23.59912109 C44.99004119 24.57716201 46.7065929 25.55486578 48.42333984 26.53222656 C52.7849221 29.01676631 57.1422442 31.508757 61.5 34 C66.69036235 36.96667655 71.88112692 39.93263464 77.07421875 42.89453125 C93.29216751 52.14748773 109.46245931 61.48268923 125.625 70.83203125 C135.89114595 76.76732552 146.1683293 82.67937825 156.5 88.5 C164.9633001 93.26810857 173.39730343 98.08515056 181.8125 102.9375 C182.87984375 103.55238281 183.9471875 104.16726563 185.046875 104.80078125 C203.40164412 115.40164412 203.40164412 115.40164412 205 117 C205.09492722 119.34253782 205.12559791 121.65546104 205.11352539 123.99829102 C205.11367142 124.72995483 205.11381744 125.46161865 205.1139679 126.2154541 C205.11326867 128.64496784 205.10547585 131.07440583 205.09765625 133.50390625 C205.0957921 135.18399514 205.09436819 136.86408457 205.09336853 138.54417419 C205.08954307 142.97473643 205.07971256 147.4052661 205.06866455 151.83581543 C205.05845103 156.35342976 205.05387104 160.87104934 205.04882812 165.38867188 C205.03809031 174.25912893 205.02101356 183.12956176 205 192 C203.098956 191.05649109 201.19872364 190.11134676 199.29882812 189.16552734 C198.2405481 188.63937836 197.18226807 188.11322937 196.09191895 187.57113647 C191.8102475 185.39543578 187.65257292 183.03558588 183.5 180.625 C181.67980566 179.57661774 179.85948622 178.52845265 178.0390625 177.48046875 C177.07258789 176.92278809 176.10611328 176.36510742 175.11035156 175.79052734 C171.77330163 173.86949719 168.43062507 171.95846748 165.0859375 170.05078125 C164.49612091 169.71435104 163.90630432 169.37792084 163.2986145 169.03129578 C162.09603315 168.34536971 160.89344727 167.65945158 159.69085693 166.97354126 C149.75195901 161.30288069 139.82986049 155.60413686 129.93359375 149.859375 C126.09683348 147.63297779 122.25432011 145.41671401 118.41015625 143.203125 C117.54668579 142.70577599 117.54668579 142.70577599 116.66577148 142.19837952 C113.82965015 140.56480743 110.99310891 138.93198008 108.15576172 137.30053711 C102.48178073 134.03214519 96.83587839 130.72652828 91.23852539 127.32836914 C87.94643114 125.37479898 84.58083824 123.564451 81.21484375 121.7421875 C69.70914739 115.50702276 58.33703057 109.10422338 47.16430664 102.28662109 C42.13351788 99.22849578 37.03321143 96.34750161 31.85375977 93.54882812 C26.93433595 90.87889702 22.06212698 88.12561351 17.1875 85.375 C16.19041016 84.81554687 15.19332031 84.25609375 14.16601562 83.6796875 C13.19728516 83.133125 12.22855469 82.5865625 11.23046875 82.0234375 C10.36832764 81.53794434 9.50618652 81.05245117 8.61791992 80.55224609 C7.32204956 79.78388428 7.32204956 79.78388428 6 79 C4.97005417 78.45934906 3.94010834 77.91869812 2.87895203 77.36166382 C0 75 0 75 -0.7215271 71.67169189 C-0.73884829 70.33488334 -0.72311532 68.99739486 -0.68115234 67.66113281 C-0.6820285 66.92903091 -0.68290466 66.19692902 -0.68380737 65.44264221 C-0.67963473 63.02837532 -0.63300597 60.61690484 -0.5859375 58.203125 C-0.57474401 56.52733885 -0.56620454 54.85153303 -0.56021118 53.17572021 C-0.53732435 48.76932367 -0.4784038 44.3641177 -0.4119873 39.95819092 C-0.35056077 35.46057237 -0.32319547 30.96276104 -0.29296875 26.46484375 C-0.22865927 17.64270665 -0.12628256 8.8214524 0 0 Z " fill="#415DEB" transform="translate(362,245)"/>
<path d="M0 0 C3.0864782 1.23459128 5.73925482 2.31214541 8.58203125 3.890625 C9.25387451 4.26292236 9.92571777 4.63521973 10.61791992 5.01879883 C11.34213135 5.42509521 12.06634277 5.8313916 12.8125 6.25 C13.97906128 6.90101685 13.97906128 6.90101685 15.16918945 7.56518555 C22.75096258 11.81866488 30.25035539 16.2115494 37.75 20.60766602 C44.73621046 24.69714159 51.75828682 28.71657744 58.8125 32.6875 C82.62916521 46.1012539 106.33275386 59.79827517 129.6640625 74.04296875 C133.4018567 76.23574966 137.19864307 78.29991105 141.0078125 80.36547852 C146.09892518 83.14656528 151.14122278 86.01360868 156.1875 88.875 C157.23486328 89.46796875 158.28222656 90.0609375 159.36132812 90.671875 C161.90798659 92.1138186 164.45420281 93.55653652 167 95 C167 95.66 167 96.32 167 97 C166.35562988 97.3623877 165.71125977 97.72477539 165.04736328 98.09814453 C162.07242391 99.77231363 159.09870811 101.44864494 156.125 103.125 C155.11179687 103.69476563 154.09859375 104.26453125 153.0546875 104.8515625 C147.45233846 108.01186196 141.89867089 111.23457916 136.39404297 114.56201172 C131.63570586 117.42011957 126.81581655 120.17341381 121.99951172 122.93237305 C116.88131658 125.87399792 111.87366122 128.92089366 107.0078125 132.26953125 C104.10532028 133.32549632 102.77349247 132.25122989 100 131 C92.15567974 126.98675304 84.55848192 122.48023118 76.9375 118.0625 C75.21907678 117.06888658 73.50065252 116.07527496 71.78216553 115.08177185 C70.01549149 114.06016394 68.24915209 113.03797977 66.48291016 112.015625 C51.65479792 103.43323251 36.81103342 94.87842606 21.9375 86.375 C21.34994934 86.03888702 20.76239868 85.70277405 20.15704346 85.35647583 C18.46834186 84.39065796 16.77909994 83.42578503 15.08984375 82.4609375 C14.12941162 81.91228027 13.16897949 81.36362305 12.17944336 80.79833984 C8.13249599 78.509327 4.06434843 76.25797135 0 74 C0 49.58 0 25.16 0 0 Z " fill="#425EEB" transform="translate(362,372)"/>
<path d="M0 0 C0 24.42 0 48.84 0 74 C-10.98603335 80.27773334 -21.9633827 86.54447859 -32.99609375 92.734375 C-38.21657755 95.67746654 -43.39611545 98.69103397 -48.578125 101.70117188 C-55.45795534 105.69501863 -62.36623247 109.63776021 -69.27929688 113.57373047 C-74.21433141 116.38941939 -79.12602503 119.23889285 -84.00708008 122.1472168 C-86.11323787 123.39355471 -88.23508579 124.60913857 -90.359375 125.82421875 C-92.63803358 127.1406609 -94.55794387 128.43991729 -96.640625 130.08203125 C-99.34029348 132.04250479 -100.64439279 132.85410403 -104 133 C-109.66232872 131.04542758 -114.69636589 127.72585779 -119.6953125 124.48583984 C-127.61957293 119.37704228 -135.85059983 114.7365803 -144 110 C-151.36557339 105.71899415 -158.70750402 101.4045385 -166 97 C-164.83362179 93.50086536 -164.3198607 93.31968219 -161.22265625 91.609375 C-160.41272217 91.1551416 -159.60278809 90.7009082 -158.76831055 90.23291016 C-157.87539307 89.7435498 -156.98247559 89.25418945 -156.0625 88.75 C-154.13235862 87.67008165 -152.20269232 86.58931388 -150.2734375 85.5078125 C-149.24959961 84.93708008 -148.22576172 84.36634766 -147.17089844 83.77832031 C-141.81560423 80.77493542 -136.50268951 77.69862848 -131.1875 74.625 C-129.55047119 73.6803186 -129.55047119 73.6803186 -127.88037109 72.71655273 C-119.46673532 67.85843648 -111.07555446 62.96243953 -102.68823242 58.05908203 C-95.46429969 53.840997 -88.20952428 49.67980462 -80.93896484 45.54272461 C-74.20107845 41.70260054 -67.50400417 37.79527517 -60.8125 33.875 C-53.22490901 29.432076 -45.60024493 25.07812117 -37.89501953 20.84301758 C-26.57303871 14.59247417 -15.26669657 8.17876515 -4.3059082 1.31225586 C-2 0 -2 0 0 0 Z " fill="#425DEB" transform="translate(1173,372)"/>
</svg>
